{
  "accessors": [
    {
      "bufferView": 2,
      "componentType": 5126,
      "count": 13520,
      "max": [
        9.9043769836425781,
        4.839322566986084,
        17.058568954467773
      ],
      "min": [
        -9.9043769836425781,
        -2.0039031505584717,
        -10.745831489562988
      ],
      "type": "VEC3"
    },
    {
      "bufferView": 2,
      "byteOffset": 162240,
      "componentType": 5126,
      "count": 13520,
      "max": [
        1,
        1,
        1
      ],
      "min": [
        -1,
        -1,
        -1
      ],
      "type": "VEC3"
    },
    {
      "bufferView": 3,
      "componentType": 5126,
      "count": 13520,
      "max": [
        1,
        1,
        1,
        1
      ],
      "min": [
        -1,
        -1,
        -1,
        -1
      ],
      "type": "VEC4"
    },
    {
      "bufferView": 1,
      "componentType": 5126,
      "count": 13520,
      "max": [
        1,
        0.99999594688415527
      ],
      "min": [
        0,
        0
      ],
      "type": "VEC2"
    },
    {
      "bufferView": 0,
      "componentType": 5125,
      "count": 38547,
      "max": [
        13519
      ],
      "min": [
        0
      ],
      "type": "SCALAR"
    },
    {
      "bufferView": 2,
      "byteOffset": 324480,
      "componentType": 5126,
      "count": 399,
      "max": [
        9.9682607650756836,
        4.7087612152099609,
        17.106376647949219
      ],
      "min": [
        -9.9682607650756836,
        -0.81105512380599976,
        8.2724552154541016
      ],
      "type": "VEC3"
    },
    {
      "bufferView": 2,
      "byteOffset": 329268,
      "componentType": 5126,
      "count": 399,
      "max": [
        1,
        0.99161040782928467,
        1
      ],
      "min": [
        -1,
        -0.99161052703857422,
        -1
      ],
      "type": "VEC3"
    },
    {
      "bufferView": 1,
      "byteOffset": 108160,
      "componentType": 5126,
      "count": 399,
      "max": [
        0.73237955570220947,
        0.25256776809692383
      ],
      "min": [
        0.23411083221435547,
        0
      ],
      "type": "VEC2"
    },
    {
      "bufferView": 0,
      "byteOffset": 154188,
      "componentType": 5125,
      "count": 1050,
      "max": [
        398
      ],
      "min": [
        0
      ],
      "type": "SCALAR"
    },
    {
      "bufferView": 2,
      "byteOffset": 334056,
      "componentType": 5126,
      "count": 458,
      "max": [
        6.9756684303283691,
        2.1945652961730957,
        0.35571575164794922
      ],
      "min": [
        -6.9756689071655273,
        -1.3865982294082642,
        -7.8675684928894043
      ],
      "type": "VEC3"
    },
    {
      "bufferView": 2,
      "byteOffset": 339552,
      "componentType": 5126,
      "count": 458,
      "max": [
        0.99023711681365967,
        1,
        0.55072009563446045
      ],
      "min": [
        -0.99023765325546265,
        -1,
        -1
      ],
      "type": "VEC3"
    },
    {
      "bufferView": 3,
      "byteOffset": 216320,
      "componentType": 5126,
      "count": 458,
      "max": [
        0.99999076128005981,
        0.98672258853912354,
        0.99588358402252197,
        1
      ],
      "min": [
        -0.92232000827789307,
        -0.98833709955215454,
        -0.73641037940979004,
        1
      ],
      "type": "VEC4"
    },
    {
      "bufferView": 1,
      "byteOffset": 111352,
      "componentType": 5126,
      "count": 458,
      "max": [
        0.94187027215957642,
        0.85790234804153442
      ],
      "min": [
        0.070009812712669373,
        0.0081016821786761284
      ],
      "type": "VEC2"
    },
    {
      "bufferView": 0,
      "byteOffset": 158388,
      "componentType": 5125,
      "count": 1731,
      "max": [
        457
      ],
      "min": [
        0
      ],
      "type": "SCALAR"
    },
    {
      "bufferView": 2,
      "byteOffset": 345048,
      "componentType": 5126,
      "count": 1882,
      "max": [
        7.1493139266967773,
        -1.0219994783401489,
        4.8125176429748535
      ],
      "min": [
        -7.1493139266967773,
        -1.5602426528930664,
        0.33019590377807617
      ],
      "type": "VEC3"
    },
    {
      "bufferView": 2,
      "byteOffset": 367632,
      "componentType": 5126,
      "count": 1882,
      "max": [
        0.98338305950164795,
        0.98338210582733154,
        1
      ],
      "min": [
        -0.98338305950164795,
        -0.98338204622268677,
        -1
      ],
      "type": "VEC3"
    },
    {
      "bufferView": 3,
      "byteOffset": 223648,
      "componentType": 5126,
      "count": 1882,
      "max": [
        0.99990779161453247,
        0.99999946355819702,
        0.99995654821395874,
        1
      ],
      "min": [
        -0.98338490724563599,
        -0.99999940395355225,
        -1,
        1
      ],
      "type": "VEC4"
    },
    {
      "bufferView": 1,
      "byteOffset": 115016,
      "componentType": 5126,
      "count": 1882,
      "max": [
        0.95912742614746094,
        0.70811265707015991
      ],
      "min": [
        0,
        0
      ],
      "type": "VEC2"
    },
    {
      "bufferView": 0,
      "byteOffset": 165312,
      "componentType": 5125,
      "count": 3456,
      "max": [
        1881
      ],
      "min": [
        0
      ],
      "type": "SCALAR"
    }
  ],
  "asset": {
    "extras": {
      "author": "Tom Zimmermann (https://sketchfab.com/tomm8)",
      "license": "CC-BY-4.0 (http://creativecommons.org/licenses/by/4.0/)",
      "source": "https://sketchfab.com/3d-models/mikoyan-gurevich-mig-19-9204188bf7114b90904c35f64a110ed3",
      "title": "Mikoyan-Gurevich MiG-19"
    },
    "generator": "Sketchfab-9.24.0",
    "version": "2.0"
  },
  "bufferViews": [
    {
      "buffer": 0,
      "byteLength": 179136,
      "byteOffset": 0,
      "name": "floatBufferViews",
      "target": 34963
    },
    {
      "buffer": 0,
      "byteLength": 130072,
      "byteOffset": 179136,
      "byteStride": 8,
      "name": "floatBufferViews",
      "target": 34962
    },
    {
      "buffer": 0,
      "byteLength": 390216,
      "byteOffset": 309208,
      "byteStride": 12,
      "name": "floatBufferViews",
      "target": 34962
    },
    {
      "buffer": 0,
      "byteLength": 253760,
      "byteOffset": 699424,
      "byteStride": 16,
      "name": "floatBufferViews",
      "target": 34962
    }
  ],
  "buffers": [
    {
      "byteLength": 953184,
      "uri": "scene.bin"
    }
  ],
  "images": [
    {
      "uri": "textures/stahl_baseColor.png"
    },
    {
      "uri": "textures/stahl_metallicRoughness.png"
    },
    {
      "uri": "textures/stahl_normal.png"
    },
    {
      "uri": "textures/emission_metallicRoughness.png"
    },
    {
      "uri": "textures/emission_emissive.png"
    },
    {
      "uri": "textures/glas_metallicRoughness.png"
    },
    {
      "uri": "textures/aams_metallicRoughness.png"
    }
  ],
  "materials": [
    {
      "doubleSided": true,
      "name": "stahl",
      "normalTexture": {
        "index": 2,
        "scale": 1,
        "texCoord": 0
      },
      "occlusionTexture": {
        "index": 1,
        "strength": 1,
        "texCoord": 0
      },
      "pbrMetallicRoughness": {
        "baseColorFactor": [
          1,
          1,
          1,
          1
        ],
        "baseColorTexture": {
          "index": 0,
          "texCoord": 0
        },
        "metallicFactor": 1,
        "metallicRoughnessTexture": {
          "index": 1,
          "texCoord": 0
        },
        "roughnessFactor": 1
      }
    },
    {
      "doubleSided": true,
      "emissiveFactor": [
        1,
        1,
        1
      ],
      "emissiveTexture": {
        "index": 4,
        "texCoord": 0
      },
      "name": "emission",
      "pbrMetallicRoughness": {
        "baseColorFactor": [
          1,
          1,
          1,
          1
        ],
        "metallicFactor": 1,
        "metallicRoughnessTexture": {
          "index": 3,
          "texCoord": 0
        },
        "roughnessFactor": 1
      }
    },
    {
      "doubleSided": true,
      "emissiveFactor": [
        0,
        0,
        0
      ],
      "name": "glas",
      "normalTexture": {
        "index": 2,
        "scale": 1,
        "texCoord": 0
      },
      "occlusionTexture": {
        "index": 5,
        "strength": 1,
        "texCoord": 0
      },
      "pbrMetallicRoughness": {
        "baseColorFactor": [
          1,
          1,
          1,
          1
        ],
        "baseColorTexture": {
          "index": 0,
          "texCoord": 0
        },
        "metallicFactor": 1,
        "metallicRoughnessTexture": {
          "index": 5,
          "texCoord": 0
        },
        "roughnessFactor": 1
      }
    },
    {
      "doubleSided": true,
      "emissiveFactor": [
        0,
        0,
        0
      ],
      "name": "aams",
      "normalTexture": {
        "index": 2,
        "scale": 1,
        "texCoord": 0
      },
      "occlusionTexture": {
        "index": 6,
        "strength": 1,
        "texCoord": 0
      },
      "pbrMetallicRoughness": {
        "baseColorFactor": [
          1,
          1,
          1,
          1
        ],
        "baseColorTexture": {
          "index": 0,
          "texCoord": 0
        },
        "metallicFactor": 1,
        "metallicRoughnessTexture": {
          "index": 6,
          "texCoord": 0
        },
        "roughnessFactor": 1
      }
    }
  ],
  "meshes": [
    {
      "name": "mig2_stahl_0",
      "primitives": [
        {
          "attributes": {
            "NORMAL": 1,
            "POSITION": 0,
            "TANGENT": 2,
            "TEXCOORD_0": 3
          },
          "indices": 4,
          "material": 0,
          "mode": 4
        }
      ]
    },
    {
      "name": "mig2_emission_0",
      "primitives": [
        {
          "attributes": {
            "NORMAL": 6,
            "POSITION": 5,
            "TEXCOORD_0": 7
          },
          "indices": 8,
          "material": 1,
          "mode": 4
        }
      ]
    },
    {
      "name": "mig2_glas_0",
      "primitives": [
        {
          "attributes": {
            "NORMAL": 10,
            "POSITION": 9,
            "TANGENT": 11,
            "TEXCOORD_0": 12
          },
          "indices": 13,
          "material": 2,
          "mode": 4
        }
      ]
    },
    {
      "name": "mig2_aams_0",
      "primitives": [
        {
          "attributes": {
            "NORMAL": 15,
            "POSITION": 14,
            "TANGENT": 16,
            "TEXCOORD_0": 17
          },
          "indices": 18,
          "material": 3,
          "mode": 4
        }
      ]
    }
  ],
  "nodes": [
    {
      "children": [
        1
      ],
      "name": "RootNode (gltf orientation matrix)",
      "rotation": [
        -0.70710678118654746,
        -0,
        -0,
        0.70710678118654757
      ]
    },
    {
      "children": [
        2
      ],
      "name": "RootNode (model correction matrix)"
    },
    {
      "children": [
        3
      ],
      "matrix": [
        1,
        0,
        0,
        0,
        0,
        0,
        1,
        0,
        0,
        -1,
        0,
        0,
        0,
        0,
        0,
        1
      ],
      "name": "8c3a867ca31e438781c63cde87d65e20.fbx"
    },
    {
      "children": [
        4
      ],
      "name": "RootNode"
    },
    {
      "children": [
        5,
        6,
        7,
        8
      ],
      "name": "mig2"
    },
    {
      "mesh": 0,
      "name": "mig2_stahl_0"
    },
    {
      "mesh": 1,
      "name": "mig2_emission_0"
    },
    {
      "mesh": 2,
      "name": "mig2_glas_0"
    },
    {
      "mesh": 3,
      "name": "mig2_aams_0"
    }
  ],
  "samplers": [
    {
      "magFilter": 9729,
      "minFilter": 9987,
      "wrapS": 10497,
      "wrapT": 10497
    }
  ],
  "scene": 0,
  "scenes": [
    {
      "name": "OSG_Scene",
      "nodes": [
        0
      ]
    }
  ],
  "textures": [
    {
      "sampler": 0,
      "source": 0
    },
    {
      "sampler": 0,
      "source": 1
    },
    {
      "sampler": 0,
      "source": 2
    },
    {
      "sampler": 0,
      "source": 3
    },
    {
      "sampler": 0,
      "source": 4
    },
    {
      "sampler": 0,
      "source": 5
    },
    {
      "sampler": 0,
      "source": 6
    }
  ]
}

